{
    "asset" : {
        "generator" : "Khronos glTF Blender I/O v1.4.40",
        "version" : "2.0"
    },
    "scene" : 0,
    "scenes" : [
        {
            "name" : "Scene",
            "nodes" : [
                0
            ]
        }
    ],
    "nodes" : [
        {
            "mesh" : 0,
            "name" : "Mball.006_Mesh.003",
            "rotation" : [
                0.7071068286895752,
                0,
                0,
                0.7071067094802856
            ]
        }
    ],
    "materials" : [
        {
            "name" : "None.005",
            "pbrMetallicRoughness" : {
                "baseColorTexture" : {
                    "index" : 0,
                    "texCoord" : 0
                },
                "metallicFactor" : 0,
                "roughnessFactor" : 0.2546440064907074
            }
        }
    ],
    "meshes" : [
        {
            "name" : "Mball.006_Mesh.003",
            "primitives" : [
                {
                    "attributes" : {
                        "POSITION" : 0,
                        "NORMAL" : 1,
                        "TEXCOORD_0" : 2
                    },
                    "indices" : 3,
                    "material" : 0
                }
            ]
        }
    ],
    "textures" : [
        {
            "sampler" : 0,
            "source" : 0
        }
    ],
    "images" : [
        {
            "mimeType" : "image/png",
            "name" : "mogcorpse",
            "uri" : "mogcorpse.png"
        }
    ],
    "accessors" : [
        {
            "bufferView" : 0,
            "componentType" : 5126,
            "count" : 7791,
            "max" : [
                3.263108968734741,
                3.4284589290618896,
                -0.5034930109977722
            ],
            "min" : [
                -3.2882840633392334,
                -3.3905889987945557,
                -9.895256996154785
            ],
            "type" : "VEC3"
        },
        {
            "bufferView" : 1,
            "componentType" : 5126,
            "count" : 7791,
            "type" : "VEC3"
        },
        {
            "bufferView" : 2,
            "componentType" : 5126,
            "count" : 7791,
            "type" : "VEC2"
        },
        {
            "bufferView" : 3,
            "componentType" : 5123,
            "count" : 40776,
            "type" : "SCALAR"
        }
    ],
    "bufferViews" : [
        {
            "buffer" : 0,
            "byteLength" : 93492,
            "byteOffset" : 0
        },
        {
            "buffer" : 0,
            "byteLength" : 93492,
            "byteOffset" : 93492
        },
        {
            "buffer" : 0,
            "byteLength" : 62328,
            "byteOffset" : 186984
        },
        {
            "buffer" : 0,
            "byteLength" : 81552,
            "byteOffset" : 249312
        }
    ],
    "samplers" : [
        {
            "magFilter" : 9729,
            "minFilter" : 9986
        }
    ],
    "buffers" : [
        {
            "byteLength" : 330864,
            "uri" : "mogcorpse.bin"
        }
    ]
}
